<svg width="50" height="46" viewBox="0 0 50 46" fill="none" xmlns="http://www.w3.org/2000/svg">
<path d="M24.74 43.2468H9.23997C8.35108 43.2468 7.62886 42.9413 7.0733 42.3302C6.51775 41.7191 6.23997 41.0246 6.23997 40.2468V19.4135L21.9066 5.58017C22.6844 4.91351 23.6289 4.58017 24.74 4.58017C25.8511 4.58017 26.7955 4.91351 27.5733 5.58017L47.4066 23.0802C47.6289 23.3024 47.9066 23.3857 48.24 23.3302C48.5733 23.2746 48.8511 23.1357 49.0733 22.9135C49.2955 22.6913 49.3789 22.4135 49.3233 22.0802C49.2677 21.7468 49.1289 21.4691 48.9066 21.2468L45.5733 18.4135V6.58017C45.5733 4.91351 44.9622 3.46906 43.74 2.24684C42.5177 1.02462 41.0733 0.441284 39.4066 0.496841C37.74 0.552395 36.3233 1.16351 35.1566 2.33017C33.99 3.49684 33.3511 4.91351 33.24 6.58017V7.58017L29.0733 3.91351C27.8511 2.80239 26.4066 2.24684 24.74 2.24684C23.0733 2.24684 21.6289 2.80239 20.4066 3.91351L0.573303 21.2468C0.23997 21.4691 0.0733032 21.7468 0.0733032 22.0802C0.0733032 22.4135 0.184414 22.6913 0.406637 22.9135C0.628859 23.1357 0.906637 23.2746 1.23997 23.3302C1.5733 23.3857 1.85108 23.3024 2.0733 23.0802L3.90664 21.5802V40.2468C3.90664 41.6913 4.43441 42.9413 5.48997 43.9968C6.54553 45.0524 7.79553 45.5802 9.23997 45.5802H24.74C25.0733 45.5802 25.3511 45.4691 25.5733 45.2468C25.7955 45.0246 25.9066 44.7468 25.9066 44.4135C25.9066 44.0802 25.7955 43.8024 25.5733 43.5802C25.3511 43.358 25.0733 43.2468 24.74 43.2468ZM35.5733 6.58017C35.6844 5.46906 36.1011 4.55239 36.8233 3.83017C37.5455 3.10795 38.4344 2.77462 39.49 2.83017C40.5455 2.88573 41.4344 3.27462 42.1566 3.99684C42.8789 4.71906 43.24 5.58017 43.24 6.58017V16.2468L35.5733 9.58017V6.58017ZM24.74 12.2468C23.1844 12.2468 21.8511 12.8024 20.74 13.9135C19.6289 15.0246 19.0733 16.358 19.0733 17.9135C19.0733 19.4691 19.6289 20.8024 20.74 21.9135C21.8511 23.0246 23.1844 23.5802 24.74 23.5802C26.2955 23.5802 27.6289 23.0246 28.74 21.9135C29.8511 20.8024 30.4066 19.4691 30.4066 17.9135C30.4066 16.358 29.8511 15.0246 28.74 13.9135C27.6289 12.8024 26.2955 12.2468 24.74 12.2468ZM28.0733 17.9135C28.0733 18.9135 27.74 19.7191 27.0733 20.3302C26.4066 20.9413 25.6289 21.2468 24.74 21.2468C23.8511 21.2468 23.0733 20.9413 22.4066 20.3302C21.74 19.7191 21.4066 18.9413 21.4066 17.9968C21.4066 17.0524 21.74 16.2468 22.4066 15.5802C23.0733 14.9135 23.8511 14.5802 24.74 14.5802C25.6289 14.5802 26.4066 14.9135 27.0733 15.5802C27.74 16.2468 28.0733 17.0246 28.0733 17.9135ZM49.0733 43.7468L45.0733 39.5802C46.0733 38.1357 46.5733 36.5246 46.5733 34.7468C46.5733 32.5246 45.7677 30.6357 44.1566 29.0802C42.5455 27.5246 40.6289 26.7468 38.4066 26.7468C36.1844 26.7468 34.2677 27.5246 32.6566 29.0802C31.0455 30.6357 30.24 32.5524 30.24 34.8302C30.24 37.108 31.0455 39.0246 32.6566 40.5802C34.2677 42.1357 36.1844 42.9135 38.4066 42.9135C40.2955 42.9135 41.9622 42.358 43.4066 41.2468L47.24 45.2468C47.4622 45.4691 47.74 45.608 48.0733 45.6635C48.4066 45.7191 48.7122 45.6357 48.99 45.4135C49.2677 45.1913 49.4066 44.9135 49.4066 44.5802C49.4066 44.2468 49.2955 43.9691 49.0733 43.7468ZM38.4066 40.5802C36.8511 40.5802 35.49 40.0246 34.3233 38.9135C33.1566 37.8024 32.5733 36.4413 32.5733 34.8302C32.5733 33.2191 33.1566 31.858 34.3233 30.7468C35.49 29.6357 36.8789 29.0802 38.49 29.0802C40.1011 29.0802 41.4622 29.6357 42.5733 30.7468C43.6844 31.858 44.24 33.2191 44.24 34.8302C44.24 36.4413 43.6844 37.8024 42.5733 38.9135C41.4622 40.0246 40.0733 40.5802 38.4066 40.5802Z" fill="#1A1A1A"/>
</svg>
